<svg xmlns="http://www.w3.org/2000/svg" viewBox="0 0 267.92 267.92"><defs><style>.a{fill:#0f314c;}</style></defs><title>audiofanzine</title><path class="a" d="M134,0a134,134,0,1,0,134,134A134,134,0,0,0,134,0Zm74.09,91.7c-4.43,3.82-7.58,8.63-10.33,13.72a123.87,123.87,0,0,0-9.39,23.42c-.05.15-.08.31-.15.59,7.1-.21,14.1.07,20.92,2l.05.27c-1.11.28-2.21.61-3.33.84a69.44,69.44,0,0,1-17.56,1.17c-1-.05-1.46.19-1.74,1.25A173.89,173.89,0,0,1,177,162.8a71.89,71.89,0,0,1-10.49,17.57,33.53,33.53,0,0,1-4.76,4.62c-6.59,5.21-14,5.07-20.48-.31A42,42,0,0,1,132,172.93a140.08,140.08,0,0,1-11.89-28.37c-3.9-12.59-8.51-24.89-14.88-36.47a65.22,65.22,0,0,0-9.44-13.56,23.2,23.2,0,0,0-6.37-5A10.54,10.54,0,0,0,79,89.72a25.74,25.74,0,0,0-7.51,6.7A79.14,79.14,0,0,0,61.17,114c-2.13,4.76-4,9.64-6,14.47-.09.24-.15.5-.26.85a56.78,56.78,0,0,1,14.37,2.13l0,.28a39.16,39.16,0,0,1-4.23,1c-3.61.44-7.22.77-10.84,1.07a1.25,1.25,0,0,0-1.32,1C48,149.31,43.83,164.1,40.09,179c-.59,2.37-1.21,4.73-1.91,7.07a460.51,460.51,0,0,1,11.17-52.23c-2.28-.24-4.54-.39-6.77-.73s-4.37-.86-6.55-1.3v-.42c1.78-.4,3.55-.91,5.36-1.16,2.81-.38,5.64-.62,8.48-.83a1.08,1.08,0,0,0,1.15-.9,169.79,169.79,0,0,1,7.34-19.88c2.78-6.13,5.85-12.1,10.23-17.26a36.9,36.9,0,0,1,4.78-4.74c6.62-5.38,14.15-5.7,21.3-1A42,42,0,0,1,105.17,96c5.09,6.87,8.88,14.46,12.34,22.24a270.08,270.08,0,0,1,10.32,28.29A123.39,123.39,0,0,0,137,168.39a41,41,0,0,0,7.32,10.2,20.24,20.24,0,0,0,3.28,2.54,8,8,0,0,0,8.56.21,23,23,0,0,0,7-6.33,84.76,84.76,0,0,0,10.3-17.81A181.17,181.17,0,0,0,182,133.75l.12-.46L175,131.8l0-.28c.51-.16,1-.36,1.53-.47,2-.38,3.89-.77,5.85-1.07a1.4,1.4,0,0,0,1.31-1.06,128.29,128.29,0,0,1,10.44-23.62,54.38,54.38,0,0,1,11.45-14.25A24.65,24.65,0,0,1,218.12,85a20.06,20.06,0,0,1,13.77,3.23c-.35-.07-.44-.07-.52-.1C222.79,84,215.07,85.59,208.05,91.67Z" transform="translate(0 0.03)"/></svg>